PathFileType	4	(X/Y/Z)	/home/abdul/Desktop/myosuite/custom_workspace/IK/output/S3_12_1.trc
DataRate	CameraRate	NumFrames	NumMarkers	Units	OrigDataRate	OrigDataStartFrame	OrigNumFrames
200.0	200.0	44	3	mm	200.0	492	786
Frame#	Time	V_Shoulder			V_Elbow			V_Wrist		
		X1	Y1	Z1	X2	Y2	Z2	X3	Y3	Z3

492	2.455	-117.1432321212262	665.5558838257127	326.34326939746154	-345.0857243049916	449.2977973208215	145.0796508920149	-117.54336911661053	357.13176351777395	307.57895339324546
493	2.46	-117.14426123688628	665.4602167370455	326.2981633664653	-345.0090401410379	449.57359890201155	144.42092300622397	-117.5301664621854	355.7818574738031	306.26165938209954
494	2.465	-117.14685718977239	665.3621023609936	326.2502426173696	-344.9307402866257	449.8552624585816	143.74661507720327	-117.51693255122882	354.42577442574463	304.90308091452846
495	2.47	-117.1510524818815	665.2615315374572	326.1994445835175	-344.85071727381916	450.14256320986556	143.0569103924916	-117.50380758361369	353.0644017598624	303.5032679228607
496	2.475	-117.15687903408464	665.1584938702376	326.14570885882574	-344.7688631728099	450.4352591947643	142.35201919488327	-117.49093607323347	351.6985970963783	302.06231465261897
497	2.48	-117.16436815938617	665.0529777192827	326.08897740219714	-344.68507016167837	450.73309170741106	141.6321789228252	-117.4784662708342	350.32918603778	300.580359493837
498	2.485	-117.17355053411102	664.9449701958525	326.02919474017705	-344.59923109313894	451.0357857853292	140.89765435891277	-117.46654954829685	348.95696014134523	299.0575847391415
499	2.49	-117.18445616703646	664.8344571609277	325.96630816709336	-344.5112400545686	451.34305074903216	140.14873768277758	-117.45533974876108	347.58267512042227	297.4942162732144
500	2.495	-117.19711436649966	664.7214232271771	325.9002679419203	-344.4209929177006	451.65458079183486	139.38574842511645	-117.44499250724866	346.2070492775497	295.89052319829074
501	2.5	-117.21155370552783	664.6058517648117	325.8310274811074	-344.3283878744805	451.97005561846316	138.60903332010716	-117.43566454666734	344.8307621710717	294.2468174003328
502	2.505	-117.22780198505204	664.4877249116433	325.7585435466229	-344.23332595572367	452.2891411308623	137.81896605399191	-117.42751295425307	343.4544535155047	292.5634530604643
503	2.51	-117.24588619527977	664.3670235876599	325.6827764284688	-344.1357115293807	452.6114901594227	137.01594690818055	-117.42069444363946	342.07872231456236	290.8408261161389
504	2.515	-117.26583247531563	664.2437275144338	325.60369012094037	-344.03545277541355	452.93674323765407	136.200402295828	-117.41536460782626	340.70412622443644	289.0793736763672
505	2.52	-117.28766607113151	664.1178152396507	325.5212524919184	-343.932462134504	453.2645294181555	135.3727841914723	-117.4116771683567	339.3311811436906	287.27957339513756
506	2.525	-117.31141129200033	663.989264167055	325.4354354445018	-343.8266567280565	453.59446712754686	134.5335694539755	-117.40978322600326	337.9603610249393	285.44194280693546
507	2.53	-117.3370914655189	663.8580505920762	325.3462150703136	-343.71795874721795	453.926165057844	133.68325904368447	-117.40983051820736	336.5920979023733	283.56703862800885
508	2.535	-117.36472889135585	663.7241497433932	325.25357179383826	-343.6062958089218	454.25922309158625	132.8223771354193	-117.41196268841989	335.22678212816174	281.65545602673797
509	2.54	-117.39434479387008	663.5875358306704	325.15749050717824	-343.49160127725077	454.5932332578502	131.95147012959558	-117.41631857234906	333.86476280979986	279.70782786615416
510	2.545	-117.42595927375494	663.4481820986772	325.05796069465106	-343.3738145487281	454.92778071611724	131.07110556449092	-117.42303150594165	332.50634843960665	277.7248239213234
511	2.55	-117.4595912588702	663.3060608879792	324.9549765466822	-343.25288130046124	455.26244476480355	130.18187093336587	-117.4322286597064	331.1518077067859	275.70715007396126
512	2.555	-117.49525845443132	663.1611437023654	324.8485370624877	-343.12875370038927	455.5967998711092	129.28437241084237	-117.44403040373588	329.8013704817701	273.65554748629245
513	2.56	-117.53297729273157	663.013401283141	324.73864614108203	-343.00139057921433	455.93041671870355	128.37923349362111	-117.45854970750017	328.4552289619595	271.57079175580543
514	2.565	-117.57276288257769	662.8628036903957	324.62531266018544	-342.87075756392807	456.26286326963543	127.46709356127405	-117.47589157817438	327.11353896745015	269.4536920521925
515	2.57	-117.61462895862299	662.7093203913151	324.508550542655	-342.7368271731737	456.59370583674104	126.54860636347726	-117.49615254092632	325.7764213749177	267.30509023740893
516	2.575	-117.65858783078629	662.5529203555783	324.3883788101048	-342.59957887500514	456.92251016272445	125.62443844064066	-117.51942016423439	324.44396367748436	265.1258599694361
517	2.58	-117.70465033394555	662.3935721578429	324.2648216234329	-342.45899910792	457.248842502004	124.69526748544277	-117.54577263293194	323.11622165814447	262.9169057899993
518	2.585	-117.75282577809787	662.2312440872927	324.13790831001705	-342.31508126634327	457.5722707013545	123.76178065327787	-117.57527837128868	321.79322116415847	260.67916219617416
519	2.59	-117.80312189917669	662.0659042641735	324.00767337739745	-342.1678256520245	457.8923652753389	122.82467283006702	-117.60799571804404	320.4749599697401	258.41359269551754
520	2.595	-117.85554481071715	661.8975207632196	323.87415651331133	-342.01723939307465	458.2087004725032	121.88464486626475	-117.64397265490615	319.1614097143577	256.12118884408716
521	2.6	-117.91009895655883	661.7260617438238	323.7374025719968	-341.8633363326137	458.52085532832155	120.94240178619998	-117.68324658962769	317.85251790404385	253.8029692664703
522	2.605	-117.96678706477321	661.5514955867746	323.59746154673746	-341.7061368892115	458.828414700915	119.99865098212001	-117.72584419436961	316.54820996324764	251.4599786567254
523	2.61	-118.025610103	661.373791037336	323.4543885286691	-341.5456678914923	459.1309702856392	119.05410040244925	-117.77178129966882	315.24839132498204	249.09328675896003
524	2.615	-118.0865672353731	661.1929173544182	323.3082436519228	-341.3819623894211	459.428121604738	118.10945674382397	-117.82106284393944	313.9529495472907	246.70398732612142
525	2.62	-118.14965578121273	661.0088444655402	323.15909202523017	-341.2150594449037	459.71947696839595	117.16542365641357	-117.87368287806433	312.6617564443971	244.29319705546223
526	2.625	-118.21487117565493	660.8215431272497	323.00700365016604	-341.04500390440256	460.0046544037009	116.22269997188094	-117.9296246242724	311.3746702212876	241.86205449907294
527	2.63	-118.28220693238534	660.6309850906358	322.8520533262552	-340.8718461562978	460.283282548242	115.28197796306125	-117.98886058815759	310.0915376009227	239.4117189478331
528	2.635	-118.35165460863675	660.4371432715207	322.6943205432172	-340.69564187569847	460.5550015053258	114.34394164404424	-118.05135272237129	308.81219593375147	236.9433692871379
529	2.64	-118.4232037726054	660.2399919248937	322.5338893606711	-340.5164517593372	460.81946365809154	113.40926511883055	-118.1170526402211	307.53647527973294	234.45820282279362
530	2.645	-118.4968419734329	660.0395068231122	322.3708482756661	-340.3343412530636	461.0763344401423	112.47861098610866	-118.1859018771309	306.264200453622	231.95743407555415
531	2.65	-118.57255471389493	659.8356654373608	322.20529007845045	-340.1493802742989	461.32529306066056	111.55262880700164	-118.25783219766578	304.9951930248694	229.44229354288268
532	2.655	-118.65032542592995	659.6284471218313	322.0373116969283	-339.9616429316444	461.56603318232885	110.63195364190753	-118.33276594559916	303.729273264094	226.91402642667163
533	2.66	-118.73013544913397	659.4178333000577	321.8670140302974	-339.77120724366216	461.7982635507144	109.71720466183962	-118.41061643430044	302.4662620287171	224.37389132583417
534	2.665	-118.8119640123406	659.2038076528152	321.6945017723951	-339.57815485867707	462.0217085740861	108.80898383898077	-118.49128837454839	301.20598258099574	221.8231588928924
535	2.67	-118.89578821839706	658.986356306963	321.51988322531446	-339.38257077728156	462.2361088529218	107.90787472050334	-118.57467833673178	299.9482623323434	219.26311045392805
